<?xml version="1.0" standalone="no"?>
<!DOCTYPE svg PUBLIC "-//W3C//DTD SVG 20010904//EN"
 "http://www.w3.org/TR/2001/REC-SVG-20010904/DTD/svg10.dtd">
<svg version="1.0" xmlns="http://www.w3.org/2000/svg"
 width="2048.000000pt" height="2048.000000pt" viewBox="0 0 2048.000000 2048.000000"
 preserveAspectRatio="xMidYMid meet">

<g transform="translate(0.000000,2048.000000) scale(0.100000,-0.100000)"
fill="#000000" stroke="none">
<path d="M15160 16741 l0 -2761 730 0 730 0 0 809 0 808 403 6 c421 6 531 16
741 66 539 129 1025 486 1303 958 291 495 334 1087 119 1622 -239 594 -817
1062 -1481 1196 -238 48 -225 48 -1412 52 l-1133 4 0 -2760z m2292 1376 c181
-53 332 -173 401 -317 108 -229 66 -474 -112 -650 -86 -86 -173 -136 -296
-172 -77 -22 -93 -23 -450 -23 l-370 0 -3 593 -2 593 387 -3 c325 -4 397 -7
445 -21z"/>
<path d="M913 19376 l-28 -24 -3 -2792 -2 -2791 29 -30 30 -29 766 2 767 3 24
28 24 28 0 1010 0 1009 730 0 730 0 0 -1001 c0 -717 3 -1007 11 -1022 6 -12
21 -30 33 -39 19 -16 75 -18 768 -18 452 0 757 4 772 10 14 5 32 23 41 39 14
27 15 313 13 2811 l-3 2782 -28 24 -28 24 -755 0 c-522 0 -762 -3 -776 -11
-49 -26 -48 -9 -48 -1069 l0 -990 -730 0 -730 0 0 1004 0 1004 -26 31 -26 31
-763 0 -764 0 -28 -24z m1437 -1164 l5 -1014 24 -19 c22 -18 51 -19 876 -19
l853 0 26 31 26 31 0 1004 0 1004 640 0 640 0 0 -2670 0 -2670 -640 0 -640 0
0 1005 0 1005 -29 32 -29 33 -809 3 c-444 2 -828 0 -852 -3 -26 -4 -53 -16
-67 -30 l-24 -24 0 -1011 0 -1010 -645 0 -645 0 0 2670 0 2670 643 -2 642 -3
5 -1013z"/>
<path d="M5720 9353 c-116 -258 -214 -474 -217 -481 -4 -10 8 -12 52 -10 l58
3 33 75 33 75 259 3 259 2 36 -80 36 -80 56 0 c31 0 55 4 53 9 -16 47 -434
951 -438 951 -4 0 -103 -210 -220 -467z m331 -3 l107 -240 -218 0 -218 0 107
240 c58 132 108 240 111 240 3 0 53 -108 111 -240z"/>
<path d="M6655 9807 c-127 -42 -195 -125 -195 -237 0 -114 58 -172 256 -256
74 -31 152 -69 174 -85 144 -105 49 -272 -155 -272 -86 0 -146 24 -204 82 -23
23 -44 41 -48 41 -5 0 -23 -13 -41 -28 l-33 -27 30 -41 c113 -154 391 -180
538 -50 58 51 82 104 83 180 0 74 -27 134 -78 175 -45 34 -151 88 -249 125
-90 34 -131 62 -156 104 -27 46 -16 95 32 143 85 85 243 71 314 -27 l23 -33
37 25 c20 13 37 29 37 34 0 24 -72 98 -120 124 -44 24 -69 30 -130 33 -44 2
-91 -3 -115 -10z"/>
<path d="M8721 9804 c-82 -22 -150 -62 -216 -129 -68 -68 -107 -135 -130 -220
-43 -166 5 -337 129 -461 193 -193 489 -193 682 0 154 154 188 380 86 570 -34
65 -133 164 -198 198 -105 56 -241 72 -353 42z m197 -99 c143 -19 280 -162
300 -314 49 -355 -369 -573 -632 -330 -191 175 -142 494 93 613 50 26 138 46
176 40 11 -1 39 -5 63 -9z"/>
<path d="M9480 9340 l0 -480 55 0 55 0 2 352 3 351 305 -338 c168 -187 313
-348 322 -360 16 -19 17 5 18 463 l0 482 -50 0 -50 0 0 -351 c0 -230 -3 -348
-10 -344 -5 3 -152 163 -325 356 -174 192 -318 349 -320 349 -3 0 -5 -216 -5
-480z"/>
<path d="M11111 9804 c-30 -8 -77 -27 -105 -42 -65 -34 -163 -133 -198 -198
-76 -142 -76 -316 0 -458 34 -65 133 -164 198 -198 171 -92 374 -72 522 50
l33 27 -31 43 -31 43 -31 -26 c-82 -69 -197 -102 -296 -84 -302 56 -419 423
-202 639 69 70 144 103 242 108 94 5 153 -13 233 -69 32 -22 58 -39 59 -37 1
2 14 19 29 40 l27 36 -36 31 c-107 94 -273 133 -413 95z"/>
<path d="M12420 9342 l0 -482 55 0 55 0 2 350 3 350 319 -355 c176 -195 321
-355 323 -355 2 0 3 216 3 480 l0 480 -50 0 -50 0 0 -351 c0 -200 -4 -349 -9
-347 -5 2 -138 147 -296 323 -158 176 -302 336 -321 355 l-34 35 0 -483z"/>
<path d="M5010 9335 l0 -475 55 0 55 0 0 210 0 210 195 0 195 0 0 55 0 55
-195 0 -195 0 0 160 0 160 225 0 225 0 0 50 0 50 -280 0 -280 0 0 -475z"/>
<path d="M7210 9335 l0 -475 50 0 50 0 0 210 0 210 240 0 240 0 0 -210 0 -210
55 0 55 0 0 476 0 475 -52 -3 -53 -3 -3 -207 -2 -208 -240 0 -240 0 0 210 0
210 -50 0 -50 0 0 -475z"/>
<path d="M8100 9335 l0 -475 55 0 55 0 0 475 0 475 -55 0 -55 0 0 -475z"/>
<path d="M11690 9335 l0 -475 280 0 280 0 0 55 0 55 -225 0 -225 0 0 165 0
165 195 0 195 0 0 50 0 50 -195 0 -195 0 0 150 0 150 225 0 225 0 0 55 0 55
-280 0 -280 0 0 -475z"/>
<path d="M13312 9758 l3 -53 138 -3 137 -3 0 -419 0 -420 50 0 50 0 0 420 0
420 140 0 140 0 0 55 0 55 -331 0 -330 0 3 -52z"/>
<path d="M14100 9335 l0 -475 281 0 280 0 -3 53 -3 52 -222 3 -223 2 0 165 0
165 195 0 195 0 0 50 0 50 -195 0 -195 0 0 150 0 150 223 2 222 3 3 53 3 52
-280 0 -281 0 0 -475z"/>
<path d="M14830 9336 l0 -476 50 0 50 0 0 185 0 185 93 0 92 0 130 -185 130
-184 63 -1 c34 0 62 3 62 6 0 3 -61 88 -135 189 -74 100 -135 185 -135 189 0
3 6 6 13 6 27 0 103 60 134 107 99 146 36 341 -136 421 -53 25 -67 27 -233 30
l-178 4 0 -476z m381 341 c24 -13 57 -43 74 -66 25 -35 30 -52 30 -100 0 -76
-35 -129 -108 -166 -45 -22 -63 -25 -164 -25 l-113 0 0 190 0 190 118 0 c105
0 124 -3 163 -23z"/>
<path d="M15243 6956 l-28 -24 -2 -2784 c-3 -2745 -3 -2783 17 -2815 13 -22
29 -34 52 -38 18 -3 842 -4 1831 -3 l1799 3 24 28 24 28 0 715 0 716 -29 29
-29 29 -1036 0 -1036 0 0 305 0 304 849 3 849 3 26 24 26 24 0 643 c0 353 -3
650 -6 659 -18 45 -12 45 -904 45 l-840 0 0 295 0 295 1013 0 c665 0 1025 4
1049 10 72 20 68 -24 68 761 l0 707 -26 31 -26 31 -1818 0 -1819 0 -28 -24z
m3545 -743 l2 -593 -1036 0 -1036 0 -29 -29 -29 -29 0 -414 c0 -461 -2 -448
68 -468 24 -6 324 -10 860 -10 l822 0 0 -520 0 -520 -846 0 -846 0 -29 -29
-29 -29 0 -424 c0 -472 -2 -458 68 -478 24 -6 384 -10 1050 -10 l1012 0 0
-595 0 -595 -1700 0 -1700 0 0 2670 0 2670 1698 -2 1697 -3 3 -592z"/>
<path d="M3250 6844 c-19 -2 -84 -9 -145 -15 -903 -90 -1712 -567 -2194 -1294
-241 -363 -387 -760 -453 -1225 -17 -126 -17 -591 1 -720 51 -371 141 -665
294 -964 295 -575 767 -1019 1380 -1298 717 -325 1612 -366 2384 -108 919 307
1610 1020 1867 1925 66 230 95 432 103 695 17 625 -134 1185 -453 1673 -329
503 -794 882 -1358 1107 -272 108 -489 163 -811 206 -104 14 -539 27 -615 18z
m495 -1408 c349 -64 614 -201 848 -440 202 -206 342 -482 393 -776 26 -147 26
-409 0 -545 -136 -727 -754 -1224 -1525 -1225 -600 -1 -1128 315 -1386 829
-49 98 -110 284 -131 401 -25 136 -25 433 -1 555 41 202 114 383 220 543 248
377 641 613 1117 672 101 12 366 4 465 -14z"/>
</g>
</svg>
